PathFileType	4	(X/Y/Z)	../Python\walking\Walking21\task.trc
DataRate	CameraRate	NumFrames	NumMarkers	Units	OrigDataRate	OrigDataStartFrame	OrigNumFrames
200.000000	200.000000	6	30	mm	200.000000	296	474
Frame#	Time	CLAV			STRN			RASI			LASI			PE01			RTH1			RTH2			RTH3			RTB1			RTB3			RHEE			RD5M			RTOE			LTH2			LTH3			LTB1			LTB2			LTB3			LHEE			LTOE			LD5M			RBAK			LTH1			RTB2			C7			PE03			LPSI			PE02			RPSI			T10			
		X1	Y1	Z1	X2	Y2	Z2	X3	Y3	Z3	X4	Y4	Z4	X5	Y5	Z5	X6	Y6	Z6	X7	Y7	Z7	X8	Y8	Z8	X9	Y9	Z9	X10	Y10	Z10	X11	Y11	Z11	X12	Y12	Z12	X13	Y13	Z13	X14	Y14	Z14	X15	Y15	Z15	X16	Y16	Z16	X17	Y17	Z17	X18	Y18	Z18	X19	Y19	Z19	X20	Y20	Z20	X21	Y21	Z21	X22	Y22	Z22	X23	Y23	Z23	X24	Y24	Z24	X25	Y25	Z25	X26	Y26	Z26	X27	Y27	Z27	X28	Y28	Z28	X29	Y29	Z29	X30	Y30	Z30	

297	1.48	622.5679931640627	1242.85009765625	150.8364715576172	684.7420654296877	1059.797485351563	154.6559143066407	644.4595336914065	861.2892456054692	296.8460998535157	648.5842895507815	853.677612304688	69.52275848388675	452.9458923339846	936.1177368164067	181.8279571533204	520.1850585937502	579.336364746094	318.7888488769532	517.592956542969	502.7036743164065	296.8409423828126	557.171325683594	549.7839355468752	300.9065246582032	465.9434204101565	281.8269653320314	274.6329956054689	432.614929199219	210.1849517822267	267.9934997558595	297.5140991210939	41.21041107177736	207.7355194091798	448.7238464355471	19.14924621582032	268.6246948242189	486.556823730469	31.40480804443361	213.1961669921876	663.4495239257815	539.0205688476565	43.82596969604494	716.4881591796877	595.6999511718752	30.1221218109131	756.6143798828127	286.7785949707032	31.09662246704103	778.3232421875005	210.4698791503907	37.68653488159181	807.009155273438	251.293914794922	40.45510101318361	812.7112426757817	28.19779014587404	85.88904571533206	989.5229492187505	90.80323791503909	79.13201141357425	958.7587280273442	65.1980895996094	36.0396194458008	459.903503417969	1239.49609375	274.752655029297	666.9387207031252	598.1936035156252	27.64642715454103	413.5727844238284	252.9283294677736	287.2248535156251	497.1181335449221	1334.40771484375	162.5746002197266	436.7735595703127	874.2539672851567	159.1415405273438	447.8667602539065	894.6660766601567	145.772689819336	434.966247558594	878.5366210937505	209.4613189697267	446.8592224121096	905.213989257813	231.9976348876954	468.7692871093752	1037.350463867188	180.7967376708985	
298	1.485	629.3401489257815	1241.361572265625	150.1383514404297	691.596618652344	1058.286010742188	154.3652038574219	651.0534667968752	860.0229492187505	296.7522888183595	655.7715454101565	852.3684692382817	69.27011871337893	459.9043884277346	934.6582031250005	180.9153900146485	524.7166748046877	578.852966308594	318.6931457519532	521.7579345703127	502.177673339844	296.8462524414064	561.6558837890627	549.044616699219	301.1353454589845	468.3046569824221	281.5788574218751	274.7337036132814	434.2726745605471	210.2713012695314	268.0725097656251	297.697723388672	42.48329544067384	207.6736755371095	448.6745605468752	19.17661666870118	268.592987060547	486.6047363281252	31.32374382019044	213.2210693359376	669.3074340820315	537.2825317382815	43.29261016845705	722.340026855469	593.6727294921877	28.49249076843263	766.8149414062502	285.9619750976564	30.36617660522462	790.097290039063	210.0785369873048	36.80210494995119	817.8478393554692	251.3833465576173	39.81435775756837	828.0162963867192	28.34283828735353	84.8598556518555	1004.0654296875	94.19490051269534	79.18315124511722	973.8280639648442	67.97902679443362	35.93893051147462	466.7048034667971	1238.176391601563	274.2421875000001	672.7874755859377	596.3313598632815	26.69017219543458	415.5938415527346	253.241180419922	287.2064514160157	503.7897949218752	1333.046508789063	161.8148498535157	443.6450805664065	872.8196411132817	158.1861114501954	454.7714538574221	893.0984497070317	145.0701904296876	441.5883789062502	877.1549682617192	208.4741210937501	453.4470825195315	903.803344726563	231.0365753173829	475.4082641601565	1035.980712890625	180.2484283447266	
299	1.49	636.1365356445315	1239.888916015625	149.4226531982422	698.4777832031252	1056.7939453125	154.0514526367188	657.7017822265627	858.765991210938	296.6546020507814	662.985046386719	851.108276367188	69.01930999755862	466.9063110351565	933.2294311523442	180.0289306640626	529.3381347656252	578.3746337890627	318.596649169922	526.0183105468752	501.659606933594	296.8578491210939	566.227233886719	548.3142700195315	301.3569946289064	470.7393798828127	281.351531982422	274.8548583984376	435.997985839844	210.3926544189454	268.1814575195314	297.9149475097657	43.84620666503908	207.6820068359376	448.6451721191409	19.19230461120606	268.5743408203126	486.6560058593752	31.24539375305177	213.2561187744142	675.2856445312502	535.6301879882815	42.7624855041504	728.2903442382815	591.7515258789065	26.75593757629396	776.7456054687505	285.1989135742189	29.67159080505373	801.4245605468755	209.7198486328126	35.98810195922853	828.303100585938	251.4330596923829	39.25052642822267	842.428344726563	28.5101776123047	83.96489715576175	1017.799194335938	97.27209472656256	79.38541412353518	988.0480346679692	70.49882507324222	35.98419570922853	473.533142089844	1236.872314453125	273.7199707031251	678.720397949219	594.5464477539065	25.71182060241701	417.6915588378909	253.5918884277345	287.2182617187501	510.4844665527346	1331.702392578125	161.0501098632813	450.5606384277346	871.430541992188	157.2288055419922	461.7139282226565	891.5741577148442	144.3788604736329	448.2519531250002	875.7938842773442	207.4849395751954	460.0862426757815	902.412719726563	230.0862121582032	482.0862121582034	1034.63134765625	179.7217407226563	
300	1.495	642.956970214844	1238.440185546875	148.6884918212891	705.3859863281252	1055.329833984375	153.7117309570313	664.4077758789065	857.5209960937505	296.5494384765626	670.224792480469	849.906616210938	68.76775360107425	473.952575683594	931.8395385742192	179.1730041503907	534.058044433594	577.8999023437502	318.4969482421876	530.381042480469	501.1482543945315	296.8720092773439	570.8916625976565	547.5911865234377	301.5641479492189	473.2514953613284	281.1463012695314	274.9934387207032	437.7953796386721	210.5498199462892	268.3187561035157	298.1680603027345	45.302791595459	207.7647247314454	448.6358642578127	19.19675064086915	268.5685424804689	486.7110900878909	31.16995239257814	213.3013610839845	681.4111938476565	534.0819091796877	42.23807525634767	734.3666992187502	589.9631347656252	24.95339584350587	786.3923950195317	284.4730834960939	29.01977729797365	812.2817382812505	209.3666381835939	35.25203704833986	838.3678588867192	251.4233551025392	38.76601791381837	855.9077758789067	28.66010093688966	83.19645690917972	1030.697021484375	99.96056365966803	79.7470397949219	1001.395385742188	72.68681335449222	36.17651748657228	480.389587402344	1235.590698242188	273.1868286132814	684.7657470703127	592.8610839843752	24.72657394409181	419.8719177246096	253.9807739257814	287.260223388672	517.2023925781252	1330.381958007813	160.2807922363282	457.522888183594	870.0954589843755	156.2725830078126	468.6958923339846	890.1025390625005	143.7003021240235	454.9607543945315	874.460083007813	206.4971313476564	466.7806396484377	901.0490722656255	229.1510772705079	488.8058776855471	1033.30859375	179.2194824218751	
301	1.5	649.8013916015627	1237.023681640625	147.9351654052735	712.321716308594	1053.902465820313	153.3432312011719	671.1745605468752	856.2904663085942	296.4327087402345	677.4907226562502	848.7722778320317	68.51227569580081	481.0440368652346	930.4962768554692	178.3518066406251	538.884704589844	577.4272460937502	318.3910217285157	534.852722167969	500.6423339843752	296.8843688964845	575.6553344726565	546.8739013671877	301.7495727539064	475.8452148437502	280.9644165039064	275.1451416015626	439.669372558594	210.7435455322267	268.4815063476564	298.4592895507814	46.85723876953126	207.9238586425782	448.6462402343752	19.19143104553223	268.5746459960939	486.7703857421877	31.09757804870607	213.3565368652345	687.7075195312502	532.6536254882815	41.7208824157715	740.593688964844	588.329772949219	23.12814331054688	795.742065429688	283.769989013672	28.41891670227052	822.647827148438	208.9947814941407	34.60142517089845	848.0377807617192	251.3373107910157	38.36196136474611	868.422485351563	28.75949859619142	82.5447692871094	1042.736328125	102.1917190551758	80.27066040039065	1013.851501464844	74.47850036621097	36.5130081176758	487.2751464843752	1234.338500976563	272.6435852050782	690.9500122070315	591.295593261719	23.74929428100587	422.1409301757815	254.4081878662111	287.3307189941407	523.9437255859377	1329.091430664063	159.5074005126954	464.534118652344	868.8225097656255	155.3206024169922	475.7187500000002	888.6923828125005	143.0360717773438	461.7184753417971	873.160034179688	205.5142364501954	473.5339660644534	899.7191772460942	228.2357788085939	495.5698547363284	1032.018432617188	178.7440643310547	
302	1.505	656.6694335937502	1235.647827148438	147.1621856689454	719.2854614257815	1052.520263671875	152.9433288574219	678.0050048828127	855.076782226563	296.3001098632814	684.782409667969	847.713256835938	68.24917602539065	488.1811523437502	929.2070312500005	177.5693359375001	543.8256835937502	576.9553222656252	318.2752990722657	539.439636230469	500.1406250000002	296.8897705078126	580.5241699218752	546.160827636719	301.9060668945314	478.5249023437502	280.8074340820314	275.3047790527345	441.6242370605471	210.9747772216798	268.6656799316407	298.7908935546876	48.51425933837893	208.1591033935548	448.6755371093752	19.17884254455567	268.5911560058595	486.8343505859377	31.0283718109131	213.4211578369142	694.1939697265627	531.3587036132815	41.21163940429689	746.9924926757815	586.8681640625002	21.32319450378419	804.783325195313	283.0778808593751	27.87778854370119	832.5057983398442	208.5845031738282	34.04320526123048	857.3112792968755	251.1617431640626	38.03823089599611	879.9489135742192	28.78350257873537	81.99853515625003	1053.900512695313	103.9043502807618	80.95233917236331	1025.403198242188	75.81755065917972	36.98647308349611	494.1905517578127	1233.122314453125	272.0911254882814	697.2971801757815	589.867614746094	22.79394149780274	424.5044860839846	254.8746490478517	287.4265747070314	530.7084960937502	1327.837158203125	158.7304840087891	471.5962829589846	867.619506835938	154.3761138916016	482.783630371094	887.351928710938	142.3876953125001	468.5286865234377	871.900024414063	204.5399932861329	480.3497009277346	898.4295043945317	227.3448638916017	502.3803710937502	1030.766723632813	178.2974395751954	
